<svg width="587" height="122" xmlns="http://www.w3.org/2000/svg" xmlns:xlink="http://www.w3.org/1999/xlink" xml:space="preserve" overflow="hidden"><g transform="translate(-190 -358)"><g><g><g><g><path d="M525.332 2.95479C557.105 2.95479 582.862 28.7118 582.862 60.4846L582.862 60.4994C582.862 92.2722 557.105 118.029 525.332 118.029L60.4846 118.029C28.7117 118.029 2.95477 92.2722 2.95477 60.4994L2.95477 60.4846C2.95477 28.7118 28.7117 2.9548 60.4846 2.9548Z" stroke="#FFFFFF" stroke-width="5.90958" stroke-linecap="butt" stroke-linejoin="miter" stroke-miterlimit="10" stroke-opacity="1" fill="#005CB9" fill-rule="nonzero" fill-opacity="1" transform="matrix(1.00031 0 0 1 191 359.008)"/><path d="M259.061 495.43C256.904 497.823 253.576 502.097 249.074 508.254 246.177 512.402 243.002 516.351 239.575 520.073 237.757 521.831 236.25 522.717 235.142 522.717 234.241 522.717 233.369 522.038 232.527 520.708 231.152 518.126 230.048 515.407 229.233 512.597 227.738 507.729 225.981 502.945 223.973 498.267 223.61 499.454 223.319 500.663 223.102 501.886 222.392 505.417 221.476 509.716 220.324 514.784 218.721 521.156 217.445 527.606 216.498 534.108 216.498 534.492 216.099 534.921 215.449 535.379 214.983 535.755 214.419 535.992 213.824 536.058 212.956 536.02 212.156 535.584 211.652 534.876 211.056 534.263 210.705 533.455 210.662 532.601 210.925 529.203 211.559 525.844 212.553 522.585L215.39 511.873C216.741 506.977 217.821 502.01 218.625 496.996 218.984 494.51 219.192 492.002 219.246 489.491 219.246 487.6 220.723 486.654 223.678 486.654 224.298 486.654 224.963 487.201 225.657 488.294 226.259 489.206 226.721 490.201 227.031 491.249 227.312 492.076 227.652 492.992 228.036 494.026L232.468 506.259C233.368 509.14 234.433 511.966 235.659 514.725 236.058 515.375 236.398 515.685 236.649 515.685 237.762 515.449 241.702 510.677 248.468 501.369 255.974 491.027 260.258 485.856 261.322 485.856 262.362 485.919 263.361 486.277 264.203 486.891 265.266 487.57 265.784 488.176 265.784 488.664 265.784 488.885 265.163 493.657 263.892 502.994 263.434 506.451 263.021 510.603 262.622 515.449 262.223 520.295 262.031 523.013 262.031 523.619 262.059 524.88 262.258 526.133 262.622 527.342 262.932 528.298 263.111 529.292 263.154 530.297 263.115 531.156 263.002 532.012 262.814 532.852 262.607 533.975 262.134 534.625 261.337 534.832 260.769 535.002 260.184 535.101 259.593 535.128 257.318 535.128 256.166 533.222 256.166 529.41 256.166 525.923 256.919 517.409 258.426 503.866 258.53 502.773 258.589 502.093 258.589 501.842 258.589 501.591 258.722 500.926 258.973 499.655 259.156 498.75 259.253 497.831 259.268 496.907 259.289 496.407 259.218 495.906 259.061 495.43Z" fill="#FFFFFF" fill-rule="nonzero" fill-opacity="1" transform="matrix(1.00031 0 0 1 28.9825 -92.9422)"/><path d="M298.715 522.378C295.497 525.306 291.953 527.854 288.151 529.971 286.034 531.261 283.657 532.068 281.193 532.335 279.186 532.399 277.303 531.371 276.273 529.646 275.109 527.763 274.513 525.582 274.559 523.368 274.694 519.154 275.379 514.977 276.598 510.943 277.272 507.913 278.287 504.968 279.627 502.167 280.388 501.193 281.587 500.672 282.818 500.778 283.478 500.82 284.055 501.241 284.295 501.857 284.7 502.61 284.903 503.455 284.886 504.309 284.812 505.064 284.554 505.789 284.133 506.422 283.459 507.52 282.847 508.654 282.301 509.82 282.301 510.041 281.828 511.297 281.045 513.75 280.299 515.929 279.9 518.213 279.863 520.516 279.924 521.689 280.107 522.853 280.41 523.988 280.764 525.554 281.503 526.337 282.641 526.337 284.174 526.259 285.678 525.888 287.073 525.244 289.18 524.295 291.164 523.094 292.982 521.669 294.628 520.528 296.119 519.176 297.415 517.65 298.187 516.61 298.74 515.424 299.04 514.163 299.483 511.353 299.706 508.512 299.705 505.668 299.842 501.325 300.897 499.153 302.866 499.153 304.048 499.153 304.802 499.463 305.156 500.084 305.586 501.208 305.763 502.414 305.673 503.615 305.673 505.092 305.585 506.85 305.378 509.007 305.141 511.726 304.994 513.661 304.92 514.813 304.609 520.872 303.834 526.899 302.6 532.838 301.616 538.15 299.77 543.265 297.134 547.981 295.256 551.723 291.422 554.081 287.235 554.068 283.193 554.134 279.225 552.969 275.859 550.729 272.55 548.503 270.895 546.611 270.895 545.056 270.898 544.323 271.07 543.599 271.398 542.943 271.737 542.249 272.166 541.894 272.683 541.894 272.949 541.894 273.23 542.101 273.54 542.515 276.376 546.888 280.857 549.074 286.984 549.074 290.127 549.074 292.771 546.307 294.918 540.771 296.933 535.801 298.131 530.537 298.464 525.185 298.434 524.254 298.582 523.323 298.715 522.378Z" fill="#FFFFFF" fill-rule="nonzero" fill-opacity="1" transform="matrix(1.00031 0 0 1 28.9825 -92.9422)"/><path d="M329.681 485.694 341.914 485.694 360.839 522.836 360.987 522.836 360.987 485.694 370.516 485.694 370.516 535.349 358.357 535.349 339.358 498.222 339.21 498.222 339.21 535.349 329.681 535.349Z" fill="#FFFFFF" fill-rule="nonzero" fill-opacity="1" transform="matrix(1.00031 0 0 1 28.9825 -92.9422)"/><path d="M377.992 485.694 387.949 485.694 387.949 505.757 407.865 505.757 407.865 485.694 417.837 485.694 417.837 535.349 407.865 535.349 407.865 513.587 387.949 513.587 387.949 535.349 377.992 535.349Z" fill="#FFFFFF" fill-rule="nonzero" fill-opacity="1" transform="matrix(1.00031 0 0 1 28.9825 -92.9422)"/><path d="M452.482 494.809C449.294 493.416 445.856 492.688 442.377 492.667 438.964 492.667 434.561 494.145 434.561 499.567 434.561 508.18 456.323 504.546 456.323 521.196 456.323 532.084 447.71 536.206 437.679 536.206 433.362 536.197 429.071 535.55 424.943 534.286L425.874 525.318C429.311 527.256 433.173 528.312 437.117 528.391 440.885 528.391 445.982 526.47 445.982 521.979 445.982 512.523 424.205 516.439 424.205 499.995 424.205 488.9 432.818 484.837 441.579 484.837 445.589 484.796 449.579 485.4 453.398 486.625Z" fill="#FFFFFF" fill-rule="nonzero" fill-opacity="1" transform="matrix(1.00031 0 0 1 28.9825 -92.9422)"/><path d="M478.676 486.536 491.057 486.536C501.679 486.536 511.415 489.609 511.415 501.31 511.415 512.701 503.083 516.837 492.593 516.837L488.471 516.837 488.471 535.364 478.676 535.364ZM488.471 509.125 491.973 509.125C496.863 509.125 501.266 507.515 501.266 501.857 501.266 496.198 496.996 494.219 491.973 494.219L488.545 494.219Z" fill="#FFFFFF" fill-rule="nonzero" fill-opacity="1" transform="matrix(1.00031 0 0 1 28.9825 -92.9422)"/><path d="M541.259 533.34C537.452 535.358 533.185 536.346 528.878 536.206 516.985 536.206 510.056 529.351 510.056 517.532 510.056 507.116 515.582 498.503 526.78 498.503 540.077 498.503 543.918 507.663 543.918 520.265L519.009 520.265C519.438 526.071 523.441 529.351 529.351 529.351 533.59 529.206 537.715 527.953 541.318 525.717ZM534.965 513.824C534.684 509.273 532.586 505.358 527.342 505.358 522.097 505.358 519.438 508.992 519.009 513.824Z" fill="#FFFFFF" fill-rule="nonzero" fill-opacity="1" transform="matrix(1.00031 0 0 1 28.9825 -92.9422)"/><path d="M547.774 499.36 556.638 499.36 556.638 504.25 556.771 504.25C559.45 500.418 563.924 498.249 568.591 498.518 577.115 498.518 580.823 504.531 580.823 512.656L580.823 535.379 571.457 535.379 571.457 516.173C571.457 511.74 571.383 505.831 565.37 505.831 558.589 505.831 557.111 513.218 557.111 517.783L557.111 535.408 547.745 535.408Z" fill="#FFFFFF" fill-rule="nonzero" fill-opacity="1" transform="matrix(1.00031 0 0 1 28.9825 -92.9422)"/><path d="M608.421 506.88C605.74 505.871 602.894 505.37 600.03 505.402 597.503 505.402 594.504 506.318 594.504 509.391 594.504 515.124 610.755 511.489 610.755 524.505 610.755 532.897 603.265 536.25 595.642 536.25 592.052 536.218 588.482 535.721 585.019 534.773L585.581 527.076C588.428 528.586 591.592 529.401 594.814 529.454 597.193 529.454 600.96 528.553 600.96 525.022 600.96 517.96 584.709 522.777 584.709 509.775 584.709 502.004 591.49 498.577 598.833 498.577 602.281 498.615 605.713 499.061 609.057 499.906Z" fill="#FFFFFF" fill-rule="nonzero" fill-opacity="1" transform="matrix(1.00031 0 0 1 28.9825 -92.9422)"/><path d="M614.789 483.803 624.17 483.803 624.17 492.756 614.789 492.756ZM614.789 499.33 624.17 499.33 624.17 535.349 614.789 535.349Z" fill="#FFFFFF" fill-rule="nonzero" fill-opacity="1" transform="matrix(1.00031 0 0 1 28.9825 -92.9422)"/><path d="M647.099 498.488C657.811 498.488 665.995 505.698 665.995 517.591 665.995 527.933 659.066 536.191 647.099 536.191 635.133 536.191 628.277 527.947 628.277 517.591 628.218 505.698 636.403 498.488 647.099 498.488ZM647.099 528.923C654.309 528.923 656.2 522.481 656.2 516.468 656.2 510.943 653.245 505.772 647.099 505.772 640.953 505.772 638.073 511.09 638.073 516.468 638.013 522.422 639.905 528.908 647.099 528.908Z" fill="#FFFFFF" fill-rule="nonzero" fill-opacity="1" transform="matrix(1.00031 0 0 1 28.9825 -92.9422)"/><path d="M669.777 499.36 678.642 499.36 678.642 504.25 678.775 504.25C681.453 500.418 685.927 498.249 690.594 498.518 699.133 498.518 702.842 504.531 702.842 512.656L702.842 535.379 693.49 535.379 693.49 516.173C693.49 511.74 693.49 505.831 687.403 505.831 680.622 505.831 679.159 513.218 679.159 517.783L679.159 535.408 669.777 535.408Z" fill="#FFFFFF" fill-rule="nonzero" fill-opacity="1" transform="matrix(1.00031 0 0 1 28.9825 -92.9422)"/></g></g></g></g></g></svg>